<svg width="120" height="121" viewBox="0 0 120 121" fill="none" xmlns="http://www.w3.org/2000/svg">
<g clip-path="url(#clip0_17_925)">
<path d="M71.086 17.9982C63.981 14.6673 56.0185 14.6673 48.9136 17.9982L15.458 33.6829C10.078 36.2052 8.67535 43.3176 11.25 48.2333V73C11.25 75.071 12.9289 76.75 15 76.75C17.071 76.75 18.75 75.071 18.75 73V53.86L48.914 68.0015C56.019 71.3325 63.9815 71.3325 71.0865 68.0015L104.542 52.317C111.819 48.9053 111.819 37.0949 104.542 33.6832L71.086 17.9982Z" fill="#F8DE18"/>
<path d="M25 56.7905L48.9141 68.0015C56.019 71.3325 63.9815 71.3325 71.0865 68.0015L95 56.7905V83.626C95 88.6665 92.4825 93.385 88.0735 95.827C80.7315 99.893 68.98 105.499 60 105.499C51.02 105.499 39.2685 99.893 31.9267 95.827C27.5175 93.385 25 88.6665 25 83.626V56.7905Z" fill="#5368A7"/>
</g>
<defs>
<clipPath id="clip0_17_925">
<rect width="120" height="120" fill="white" transform="translate(0 0.5)"/>
</clipPath>
</defs>
</svg>
