<svg width="120" height="121" viewBox="0 0 120 121" fill="none" xmlns="http://www.w3.org/2000/svg">
<g clip-path="url(#clip0_17_928)">
<path d="M35 24.6468C35 32.3857 43.6296 40.538 50.7485 45.9466C54.7445 48.9822 56.742 50.5 60 50.5C63.258 50.5 65.256 48.9822 69.2515 45.9466C76.3705 40.5381 85 32.3858 85 24.6467C85 10.6959 71.2495 5.48731 60 16.2642C48.7504 5.48731 35 10.6959 35 24.6468Z" fill="#EBBC09"/>
<path d="M31.2997 107.442H30C25.286 107.442 22.929 107.442 21.4645 105.977C20 104.513 20 102.156 20 97.442V91.882C20 89.2895 20 87.9935 20.6659 86.836C21.3318 85.678 22.3364 85.094 24.3455 83.9255C37.5728 76.232 56.3575 71.9015 68.8955 79.3795C69.7375 79.882 70.4955 80.4885 71.1425 81.2155C73.933 84.35 73.73 89.0805 70.514 91.8875C69.8345 92.48 69.111 92.93 68.382 93.086C68.981 93.0165 69.555 92.937 70.103 92.8495C74.66 92.1225 78.485 89.6875 81.987 87.042L91.023 80.2165C94.2085 77.81 98.9365 77.8095 102.122 80.215C104.991 82.381 105.868 85.947 104.054 88.8535C101.94 92.2435 98.9605 96.58 96.0995 99.2295C93.2345 101.883 88.9695 104.252 85.4875 105.932C81.63 107.794 77.369 108.867 73.0345 109.569C64.244 110.991 55.083 110.774 46.3816 108.982C41.4627 107.968 36.354 107.442 31.2997 107.442Z" fill="#5368A7"/>
</g>
<defs>
<clipPath id="clip0_17_928">
<rect width="120" height="120" fill="white" transform="translate(0 0.5)"/>
</clipPath>
</defs>
</svg>
