<svg width="120" height="120" viewBox="0 0 120 120" fill="none" xmlns="http://www.w3.org/2000/svg">
<g clip-path="url(#clip0_0_673)">
<path fill-rule="evenodd" clip-rule="evenodd" d="M107.657 57.9284L103.75 54.8024V106.25H110C112.071 106.25 113.75 107.929 113.75 110C113.75 112.071 112.071 113.75 110 113.75H10.0001C7.92904 113.75 6.25014 112.071 6.25014 110C6.25014 107.929 7.92904 106.25 10.0001 106.25H16.2501V54.8024L12.3427 57.9284C10.7255 59.2224 8.36564 58.9599 7.07189 57.3429C5.77809 55.7254 6.04029 53.3654 7.65754 52.0719L48.2871 19.5682C55.135 14.0899 64.8655 14.0899 71.713 19.5682L112.342 52.0719C113.96 53.3654 114.222 55.7254 112.928 57.3429C111.634 58.9599 109.275 59.2224 107.657 57.9284ZM60 33.7501C52.406 33.7501 46.2501 39.9062 46.2501 47.5001C46.2501 55.0939 52.406 61.2499 60 61.2499C67.594 61.2499 73.75 55.0939 73.75 47.5001C73.75 39.9062 67.594 33.7501 60 33.7501ZM68.7295 66.5579C66.4355 66.2499 63.5715 66.2499 60.247 66.2499H59.7535C56.429 66.2499 53.5645 66.2499 51.271 66.5579C48.8127 66.8884 46.4564 67.6339 44.5452 69.5454C42.6339 71.4564 41.8886 73.8129 41.5581 76.2709C41.2498 78.5644 41.2499 81.4289 41.2501 84.7534V106.25H48.7501H71.25H78.75V84.7534V84.1354C78.749 81.0729 78.731 78.4214 78.442 76.2709C78.1115 73.8129 77.3665 71.4564 75.455 69.5454C73.544 67.6339 71.1875 66.8884 68.7295 66.5579Z" fill="#5368A7"/>
<g opacity="0.5">
<path fill-rule="evenodd" clip-rule="evenodd" d="M53.75 47.5C53.75 44.0482 56.548 41.25 60 41.25C63.452 41.25 66.25 44.0482 66.25 47.5C66.25 50.952 63.452 53.75 60 53.75C56.548 53.75 53.75 50.952 53.75 47.5Z" fill="#F8DE18"/>
<path fill-rule="evenodd" clip-rule="evenodd" d="M53.75 47.5C53.75 44.0482 56.548 41.25 60 41.25C63.452 41.25 66.25 44.0482 66.25 47.5C66.25 50.952 63.452 53.75 60 53.75C56.548 53.75 53.75 50.952 53.75 47.5Z" fill="#F8DE18"/>
</g>
<path d="M60.247 66.25C63.571 66.25 66.4355 66.2495 68.729 66.558C71.1875 66.8885 73.5435 67.634 75.455 69.545C77.366 71.4565 78.1115 73.8125 78.442 76.271C78.731 78.421 78.749 81.073 78.75 84.135V106.25H41.25V84.753C41.2499 81.429 41.2497 78.5645 41.5581 76.271C41.8886 73.8125 42.6339 71.4565 44.5451 69.545C46.4563 67.634 48.8126 66.8885 51.271 66.558C53.5645 66.2495 56.429 66.25 59.753 66.25H60.247Z" fill="#F8DE18"/>
<path d="M80 15H92.5C93.8805 15 95 16.1193 95 17.5V38.1978L77.5 24.1978V17.5C77.5 16.1193 78.6195 15 80 15Z" fill="#F8DE18"/>
</g>
<defs>
<clipPath id="clip0_0_673">
<rect width="120" height="120" fill="white"/>
</clipPath>
</defs>
</svg>
