<svg width="32" height="32" viewBox="0 0 32 32" fill="none" xmlns="http://www.w3.org/2000/svg">
<path d="M18.9334 3.83325C17.2979 3.83325 15.7294 4.48295 14.5729 5.63943C13.4164 6.7959 12.7667 8.36442 12.7667 9.99992V13.4333H9.46675C9.30106 13.4333 9.16675 13.5676 9.16675 13.7333V18.2666C9.16675 18.4323 9.30106 18.5666 9.46675 18.5666H12.7667V27.8666C12.7667 28.0323 12.9011 28.1666 13.0667 28.1666H17.6001C17.7658 28.1666 17.9001 28.0323 17.9001 27.8666V18.5666H21.2293C21.367 18.5666 21.487 18.4729 21.5204 18.3393L22.6537 13.806C22.701 13.6167 22.5578 13.4333 22.3626 13.4333H17.9001V9.99992C17.9001 9.72586 18.0089 9.46303 18.2027 9.26924C18.3965 9.07545 18.6594 8.96658 18.9334 8.96658H22.4001C22.5658 8.96658 22.7001 8.83227 22.7001 8.66658V4.13325C22.7001 3.96757 22.5658 3.83325 22.4001 3.83325H18.9334Z" fill="#303058"/>
</svg>
