<svg width="33" height="32" viewBox="0 0 33 32" fill="none" xmlns="http://www.w3.org/2000/svg">
<path d="M7.00008 2.5C5.43527 2.5 4.16675 3.76853 4.16675 5.33333C4.16675 6.89814 5.43527 8.16667 7.00008 8.16667C8.56489 8.16667 9.83342 6.89814 9.83342 5.33333C9.83342 3.76853 8.56489 2.5 7.00008 2.5Z" fill="#303058"/>
<path d="M4.33341 10.5C4.24137 10.5 4.16675 10.5746 4.16675 10.6667V28C4.16675 28.092 4.24137 28.1667 4.33341 28.1667H9.66675C9.7588 28.1667 9.83342 28.092 9.83342 28V10.6667C9.83342 10.5746 9.7588 10.5 9.66675 10.5H4.33341Z" fill="#303058"/>
<path d="M13.0001 10.5C12.908 10.5 12.8334 10.5746 12.8334 10.6667V28C12.8334 28.092 12.908 28.1667 13.0001 28.1667H18.3334C18.4255 28.1667 18.5001 28.092 18.5001 28V18.6667C18.5001 18.0036 18.7635 17.3677 19.2323 16.8989C19.7012 16.4301 20.337 16.1667 21.0001 16.1667C21.6631 16.1667 22.299 16.4301 22.7678 16.8989C23.2367 17.3677 23.5001 18.0036 23.5001 18.6667V28C23.5001 28.092 23.5747 28.1667 23.6667 28.1667H29.0001C29.0921 28.1667 29.1667 28.092 29.1667 28V16.507C29.1667 13.2713 26.3526 10.74 23.1332 11.0327C22.1403 11.1229 21.1587 11.3697 20.242 11.7626L18.5001 12.5091V10.6667C18.5001 10.5746 18.4255 10.5 18.3334 10.5H13.0001Z" fill="#303058"/>
</svg>
