<svg width="121" height="24" viewBox="0 0 121 24" fill="none" xmlns="http://www.w3.org/2000/svg">
<g clip-path="url(#clip0_694_2264)">
<path d="M14.9125 17.469C14.9125 18.853 14.5613 20.0346 13.8589 21.014C13.1672 21.9827 12.1947 22.7226 10.9412 23.2335C9.68771 23.7445 8.21265 24 6.51609 24C5.61918 24 4.77091 23.9574 3.97125 23.8722C3.1716 23.7871 2.43679 23.6646 1.7668 23.505C1.09682 23.3453 0.507888 23.1484 0 22.9142V20.3114C0.81046 20.6414 1.79922 20.9501 2.96628 21.2375C4.13334 21.5143 5.35444 21.6527 6.62956 21.6527C7.81823 21.6527 8.82317 21.4983 9.64443 21.1896C10.4658 20.8702 11.0871 20.4178 11.5086 19.8323C11.9408 19.2362 12.1569 18.523 12.1569 17.6926C12.1569 16.8942 11.9786 16.2289 11.622 15.6966C11.2654 15.1537 10.6711 14.664 9.83901 14.2275C9.01775 13.7804 7.89388 13.3067 6.46747 12.8064C5.4625 12.4551 4.5764 12.0718 3.80916 11.6567C3.04192 11.2309 2.39896 10.7518 1.88027 10.2196C1.36158 9.68728 0.967147 9.06984 0.696995 8.36728C0.437648 7.66467 0.307975 6.86094 0.307975 5.95609C0.307975 4.71058 0.626756 3.64604 1.26432 2.76247C1.91269 1.86826 2.80419 1.18696 3.93883 0.718563C5.08428 0.239521 6.39723 0 7.87767 0C9.142 0 10.309 0.117099 11.3789 0.351298C12.4594 0.585496 13.4482 0.899536 14.3452 1.29342L13.4861 3.62475C12.6324 3.27346 11.7247 2.9807 10.7629 2.7465C9.81196 2.51231 8.82862 2.39521 7.81283 2.39521C6.79706 2.39521 5.93797 2.54425 5.23557 2.84231C4.54398 3.12974 4.01448 3.53958 3.64707 4.07186C3.27966 4.60413 3.09596 5.23753 3.09596 5.97206C3.09596 6.79175 3.26885 7.47306 3.61465 8.016C3.97125 8.55888 4.53317 9.04328 5.30041 9.46904C6.07845 9.88424 7.10503 10.3207 8.38018 10.7785C9.77412 11.2788 10.9574 11.811 11.93 12.3753C12.9025 12.9288 13.6427 13.6101 14.1506 14.4192C14.6585 15.2176 14.9125 16.2342 14.9125 17.469Z" fill="#628BB7"/>
<path d="M19.7598 23.6803V0.334961H22.5154V21.2531H33.0351V23.6803H19.7598Z" fill="#628BB7"/>
<path d="M51.967 23.6804L49.0493 16.2712H39.5508L36.6493 23.6804H33.8613L43.133 0.239258H45.613L54.8198 23.6804H51.967ZM48.2226 13.86L45.4509 6.49874C45.3861 6.30712 45.278 5.99308 45.1268 5.55662C44.9863 5.12016 44.8403 4.66774 44.689 4.19934C44.5377 3.73094 44.4135 3.35303 44.3163 3.06561C44.2082 3.50206 44.0893 3.93853 43.9596 4.37498C43.8408 4.8008 43.7219 5.2 43.603 5.57259C43.4842 5.93454 43.3815 6.24325 43.2951 6.49874L40.4747 13.86H48.2226Z" fill="#628BB7"/>
<path d="M74.6586 0.334961L66.1488 23.6803H63.377L54.8672 0.334961H57.7524L63.2959 15.7122C63.5229 16.3296 63.7228 16.9204 63.8957 17.4847C64.0794 18.0488 64.2415 18.5918 64.3819 19.1134C64.5224 19.635 64.6467 20.1407 64.7548 20.6304C64.8628 20.1407 64.9871 19.635 65.1276 19.1134C65.2681 18.5812 65.4302 18.0329 65.6139 17.4687C65.7975 16.8939 66.0028 16.2923 66.2298 15.6643L71.7409 0.334961H74.6586Z" fill="#628BB7"/>
<path d="M96.4447 23.6803H93.2678L80.3493 4.07149H80.2197C80.2521 4.59311 80.2899 5.18926 80.3332 5.85991C80.3764 6.51993 80.4088 7.22784 80.4304 7.98366C80.4628 8.72883 80.479 9.48995 80.479 10.2671V23.6803H77.918V0.334961H81.0788L93.9492 19.8799H94.0621C94.0409 19.5073 94.0133 18.9804 93.9817 18.2991C93.9492 17.6071 93.9167 16.8672 93.8842 16.0795C93.8623 15.2811 93.8517 14.5412 93.8517 13.8599V0.334961H96.4447V23.6803Z" fill="#628BB7"/>
<path d="M117.775 23.6804L114.857 16.2712H105.359L102.458 23.6804H99.6699L108.941 0.239258H111.422L120.628 23.6804H117.775ZM114.031 13.86L111.259 6.49874C111.194 6.30712 111.086 5.99308 110.935 5.55662C110.795 5.12016 110.648 4.66774 110.497 4.19934C110.346 3.73094 110.222 3.35303 110.125 3.06561C110.017 3.50206 109.897 3.93853 109.768 4.37498C109.649 4.8008 109.53 5.2 109.412 5.57259C109.292 5.93454 109.19 6.24325 109.103 6.49874L106.283 13.86H114.031Z" fill="#628BB7"/>
</g>
<defs>
<clipPath id="clip0_694_2264">
<rect width="121" height="24" fill="white"/>
</clipPath>
</defs>
</svg>
