<svg width="33" height="32" viewBox="0 0 33 32" fill="none" xmlns="http://www.w3.org/2000/svg">
<path fill-rule="evenodd" clip-rule="evenodd" d="M24.9775 26.3868L24.9784 26.3845L25.0016 26.3265L29 6.16774V6.10226C29 5.59999 28.8144 5.16151 28.4106 4.8985C28.0571 4.66828 27.6507 4.65189 27.3658 4.67352C27.0645 4.69639 26.7803 4.77161 26.5836 4.83422C26.4824 4.86644 26.3977 4.89747 26.3371 4.92095C26.3067 4.93273 26.2821 4.94273 26.2641 4.95018L26.2465 4.95759L3.95344 13.7028L3.9473 13.705C3.93526 13.7094 3.91934 13.7154 3.90011 13.7228C3.86177 13.7378 3.80958 13.7591 3.74828 13.7869C3.6279 13.8415 3.46159 13.9257 3.29292 14.0412C3.00645 14.2373 2.46096 14.7018 2.55307 15.4381C2.62937 16.0479 3.04977 16.4353 3.33319 16.6358C3.48513 16.7433 3.63048 16.8208 3.73691 16.8715C3.79085 16.8972 3.83666 16.9168 3.87077 16.9307C3.88788 16.9377 3.90218 16.9433 3.91324 16.9475L3.92741 16.9528L3.93647 16.9561L7.83679 18.2692C7.82362 18.5139 7.8479 18.7634 7.91279 19.0096L9.8665 26.4208C10.0982 27.2996 10.8931 27.9117 11.8019 27.911C12.6165 27.9104 13.3389 27.4176 13.6458 26.6824L16.696 23.421L21.9347 27.4373L22.0092 27.4698C22.4851 27.6775 22.9298 27.7433 23.3364 27.6877C23.7424 27.6323 24.065 27.462 24.3073 27.2681C24.5458 27.0773 24.7093 26.862 24.812 26.6999C24.8643 26.6175 24.9032 26.5451 24.9302 26.4906C24.9437 26.4633 24.9545 26.4401 24.9625 26.4221L24.9725 26.3989L24.9761 26.3903L24.9775 26.3868ZM9.84666 18.4998C9.80225 18.3313 9.87196 18.1535 10.019 18.0601L23.2484 9.65893C23.2484 9.65893 24.0265 9.18653 23.9987 9.65893C23.9987 9.65893 24.1375 9.74235 23.7206 10.1313C23.3251 10.5008 14.2917 19.2222 13.3776 20.1047C13.3249 20.1556 13.2934 20.2141 13.2748 20.285L11.8004 25.911L9.84666 18.4998Z" fill="#303058"/>
</svg>
