<svg width="120" height="121" viewBox="0 0 120 121" fill="none" xmlns="http://www.w3.org/2000/svg">
<path d="M97.5 38C97.5 44.9035 91.9035 50.5 85 50.5C78.0965 50.5 72.5 44.9035 72.5 38C72.5 31.0964 78.0965 25.5 85 25.5C91.9035 25.5 97.5 31.0964 97.5 38Z" fill="#F8DE18"/>
<path d="M22.5 38C22.5 44.9035 28.0964 50.5 35 50.5C41.9035 50.5 47.5 44.9035 47.5 38C47.5 31.0964 41.9035 25.5 35 25.5C28.0964 25.5 22.5 31.0964 22.5 38Z" fill="#F8DE18"/>
<path d="M110 83C110 89.9035 101.045 95.5 90 95.5C78.9545 95.5 70 89.9035 70 83C70 76.0965 78.9545 70.5 90 70.5C101.045 70.5 110 76.0965 110 83Z" fill="#F8DE18"/>
<path d="M10 83C10 89.9035 18.9543 95.5 30 95.5C41.0457 95.5 50 89.9035 50 83C50 76.0965 41.0457 70.5 30 70.5C18.9543 70.5 10 76.0965 10 83Z" fill="#F8DE18"/>
<path d="M77.5 38C77.5 47.665 69.665 55.5 60 55.5C50.335 55.5 42.5 47.665 42.5 38C42.5 28.335 50.335 20.5 60 20.5C69.665 20.5 77.5 28.335 77.5 38Z" fill="#5368A7"/>
<path d="M90 83C90 92.665 76.5685 100.5 60 100.5C43.4315 100.5 30 92.665 30 83C30 73.335 43.4315 65.5 60 65.5C76.5685 65.5 90 73.335 90 83Z" fill="#5368A7"/>
</svg>
