<svg width="32" height="32" viewBox="0 0 32 32" fill="none" xmlns="http://www.w3.org/2000/svg">
<path d="M16.0547 3.16602C19.3706 3.16606 22.4807 4.41107 24.8652 6.67188L25.0938 6.89355C27.5057 9.29436 28.832 12.4887 28.832 15.8877C28.832 22.8961 23.0955 28.6025 16.0547 28.6025H16.0479C13.9087 28.6025 11.8076 28.0655 9.94141 27.0547C9.8579 27.0095 9.76342 26.989 9.66992 26.9951L9.57617 27.0107L3.43359 28.6152C3.42362 28.6178 3.41847 28.6169 3.41602 28.6162C3.41213 28.615 3.40675 28.6119 3.40137 28.6064C3.39586 28.6009 3.3927 28.5948 3.3916 28.5908L3.39258 28.5742L5.0332 22.6182C5.06881 22.4889 5.05156 22.3504 4.98438 22.2344C3.86536 20.3022 3.27654 18.1108 3.27734 15.8809L3.28125 15.5537C3.45658 8.69571 9.12389 3.16602 16.0547 3.16602ZM11.1865 9.05273C10.8844 9.05281 10.4557 9.15008 10.0674 9.48242L9.90332 9.63965L9.84473 9.70215C9.4615 10.1072 8.5694 11.0531 8.56934 12.835C8.56934 13.7762 8.90792 14.6746 9.24902 15.3486C9.50742 15.8592 9.7795 16.2656 9.94336 16.4951L10.0664 16.6631L10.0742 16.6729C10.0755 16.6746 10.0796 16.6809 10.0889 16.6943L10.1309 16.7559C10.5596 17.3896 12.7694 20.6717 16.1621 22.0059V22.0049C17.4895 22.5274 18.3658 22.7776 18.999 22.8838C19.4879 22.9658 19.8257 22.961 20.0957 22.9375L20.3457 22.9102L20.5137 22.8916C20.9457 22.8513 21.5332 22.5966 22.0273 22.2783C22.4844 21.9839 22.9882 21.5543 23.2168 21.04L23.2588 20.9355L23.2598 20.9326C23.4159 20.4917 23.4961 20.0788 23.5244 19.748C23.5385 19.5832 23.5405 19.4309 23.5303 19.3008C23.5242 19.2231 23.5108 19.1069 23.4688 18.9932L23.417 18.8818L23.3379 18.7715C23.2532 18.672 23.1547 18.6036 23.0762 18.5557C23.0236 18.5235 22.9658 18.4925 22.9072 18.4629L22.7334 18.3779L22.5498 18.2891C22.3761 18.2026 21.8664 17.9526 21.3604 17.709C20.9915 17.5314 20.6016 17.346 20.3516 17.2354L20.1543 17.1523C20.0069 17.0973 19.7614 17.0063 19.5 17.0371C19.1869 17.074 18.9585 17.2619 18.793 17.5117C18.6877 17.6672 18.4764 17.9296 18.2656 18.1836L17.7402 18.8047C17.7348 18.811 17.7288 18.815 17.7246 18.8193L17.5967 18.7686L17.3457 18.6562C16.9381 18.4804 16.1998 18.1616 15.3252 17.4648L14.9424 17.1426L14.9414 17.1416L14.7646 16.9795C14.1291 16.3769 13.642 15.7004 13.3574 15.2627L13.1299 14.8955C13.1277 14.8918 13.1258 14.888 13.124 14.8848L13.2012 14.8047H13.2021C13.2609 14.7462 13.3222 14.6768 13.3828 14.6064L13.5576 14.3994L13.7402 14.1807C13.8394 14.0668 13.9114 13.9639 13.9697 13.8652L14.1191 13.5762L14.1562 13.501C14.3383 13.1279 14.2725 12.7959 14.1719 12.5566L14.127 12.46C14.127 12.46 14.124 12.4537 14.1172 12.4385C14.1106 12.4237 14.1022 12.4042 14.0918 12.3799C14.0707 12.3307 14.043 12.2659 14.0107 12.1885L13.7725 11.6104C13.6563 11.3274 13.526 11.0085 13.4023 10.7119L13.0742 9.94531V9.94434L12.9521 9.70703C12.8225 9.48735 12.6684 9.32008 12.4785 9.20996C12.2286 9.0651 11.9829 9.06275 11.8623 9.05957H11.8633C11.6555 9.0527 11.4151 9.05273 11.1865 9.05273Z" fill="#393186" stroke="#393186" stroke-linejoin="round"/>
</svg>
